<svg width="160" height="47" viewBox="0 0 160 47" fill="none" xmlns="http://www.w3.org/2000/svg">
<path d="M118.488 46.5113C118.024 46.5113 117.578 46.4382 117.151 46.2919C116.723 46.1456 116.35 45.9363 116.031 45.664C115.713 45.3876 115.485 45.0605 115.348 44.6825L116.528 44.2375C116.596 44.4326 116.727 44.6074 116.921 44.7618C117.119 44.9122 117.353 45.03 117.623 45.1154C117.897 45.2007 118.186 45.2434 118.488 45.2434C118.811 45.2434 119.113 45.1905 119.396 45.0849C119.682 44.9792 119.912 44.8329 120.086 44.646C120.263 44.459 120.352 44.2396 120.352 43.9876C120.352 43.7275 120.259 43.5142 120.074 43.3475C119.892 43.1809 119.658 43.0488 119.372 42.9513C119.089 42.8538 118.795 42.7806 118.488 42.7319C117.895 42.6343 117.363 42.4921 116.891 42.3051C116.423 42.1182 116.052 41.8561 115.777 41.5188C115.507 41.1815 115.372 40.7426 115.372 40.2021C115.372 39.6941 115.515 39.2511 115.801 38.8732C116.092 38.4952 116.473 38.2026 116.945 37.9954C117.421 37.784 117.935 37.6784 118.488 37.6784C118.944 37.6784 119.384 37.7515 119.807 37.8978C120.235 38.0401 120.61 38.2493 120.933 38.5257C121.26 38.798 121.493 39.1292 121.635 39.5193L120.443 39.9521C120.374 39.753 120.243 39.5803 120.049 39.434C119.856 39.2836 119.622 39.1658 119.347 39.0804C119.077 38.9951 118.791 38.9524 118.488 38.9524C118.165 38.9483 117.863 39.0012 117.58 39.1109C117.302 39.2166 117.074 39.3629 116.897 39.5498C116.719 39.7367 116.63 39.9542 116.63 40.2021C116.63 40.5069 116.713 40.7385 116.879 40.897C117.044 41.0555 117.266 41.1733 117.544 41.2506C117.827 41.3237 118.141 41.3908 118.488 41.4517C119.045 41.5411 119.559 41.6895 120.031 41.8967C120.507 42.104 120.888 42.3803 121.175 42.7258C121.465 43.0671 121.61 43.4877 121.61 43.9876C121.61 44.4915 121.465 44.9345 121.175 45.3165C120.888 45.6945 120.507 45.9891 120.031 46.2004C119.559 46.4077 119.045 46.5113 118.488 46.5113Z" fill="white" fill-opacity="0.36"/>
<path d="M125.47 46.5113C124.914 46.5113 124.405 46.367 123.945 46.0785C123.49 45.79 123.125 45.4039 122.85 44.9203C122.58 44.4326 122.445 43.8941 122.445 43.3049C122.445 42.8578 122.524 42.4413 122.681 42.0552C122.838 41.6651 123.054 41.3237 123.328 41.0311C123.607 40.7344 123.929 40.5028 124.296 40.3362C124.664 40.1696 125.055 40.0862 125.47 40.0862C126.027 40.0862 126.533 40.2305 126.989 40.5191C127.449 40.8076 127.814 41.1957 128.084 41.6834C128.359 42.171 128.496 42.7115 128.496 43.3049C128.496 43.7478 128.417 44.1624 128.26 44.5484C128.103 44.9345 127.885 45.2759 127.606 45.5725C127.332 45.8651 127.011 46.0948 126.644 46.2614C126.281 46.428 125.89 46.5113 125.47 46.5113ZM125.47 45.2434C125.805 45.2434 126.106 45.154 126.372 44.9751C126.638 44.7963 126.848 44.5606 127.001 44.268C127.159 43.9714 127.237 43.6503 127.237 43.3049C127.237 42.9513 127.157 42.6262 126.995 42.3295C126.838 42.0329 126.626 41.7972 126.36 41.6224C126.094 41.4436 125.797 41.3542 125.47 41.3542C125.14 41.3542 124.839 41.4436 124.569 41.6224C124.303 41.8012 124.091 42.039 123.933 42.3356C123.78 42.6323 123.703 42.9554 123.703 43.3049C123.703 43.6666 123.784 43.9937 123.945 44.2863C124.107 44.5789 124.321 44.8126 124.587 44.9873C124.857 45.158 125.152 45.2434 125.47 45.2434Z" fill="white" fill-opacity="0.36"/>
<path d="M129.391 46.3528V37.209H130.649V46.3528H129.391Z" fill="white" fill-opacity="0.36"/>
<path d="M131.855 44.0669V40.2569H133.114V43.756C133.114 44.0283 133.18 44.2762 133.313 44.4997C133.447 44.7232 133.624 44.902 133.846 45.0361C134.068 45.1662 134.312 45.2312 134.578 45.2312C134.848 45.2312 135.092 45.1662 135.31 45.0361C135.532 44.902 135.708 44.7232 135.837 44.4997C135.97 44.2762 136.036 44.0283 136.036 43.756V40.2569H137.295L137.301 46.3528H136.042L136.036 45.6945C135.831 45.9464 135.574 46.1456 135.268 46.2919C134.961 46.4382 134.633 46.5113 134.282 46.5113C133.834 46.5113 133.426 46.4016 133.059 46.1821C132.692 45.9627 132.4 45.668 132.182 45.2982C131.964 44.9284 131.855 44.518 131.855 44.0669Z" fill="white" fill-opacity="0.36"/>
<path d="M141.709 41.5249H140.439L140.433 46.3528H139.174L139.18 41.5249H138.218V40.2569H139.18L139.174 38.3428H140.433L140.439 40.2569H141.709V41.5249Z" fill="white" fill-opacity="0.36"/>
<path d="M142.71 40.2569H143.969V46.3528H142.71V40.2569ZM143.351 39.373C143.158 39.373 142.996 39.31 142.867 39.1841C142.738 39.0581 142.674 38.8996 142.674 38.7086C142.674 38.5216 142.738 38.3652 142.867 38.2392C142.996 38.1091 143.156 38.0441 143.345 38.0441C143.531 38.0441 143.688 38.1091 143.817 38.2392C143.947 38.3652 144.011 38.5216 144.011 38.7086C144.011 38.8996 143.947 39.0581 143.817 39.1841C143.692 39.31 143.537 39.373 143.351 39.373Z" fill="white" fill-opacity="0.36"/>
<path d="M147.973 46.5113C147.416 46.5113 146.908 46.367 146.448 46.0785C145.992 45.79 145.627 45.4039 145.352 44.9203C145.082 44.4326 144.947 43.8941 144.947 43.3049C144.947 42.8578 145.026 42.4413 145.183 42.0552C145.34 41.6651 145.556 41.3237 145.831 41.0311C146.109 40.7344 146.432 40.5028 146.799 40.3362C147.166 40.1696 147.557 40.0862 147.973 40.0862C148.529 40.0862 149.036 40.2305 149.491 40.5191C149.951 40.8076 150.316 41.1957 150.587 41.6834C150.861 42.171 150.998 42.7115 150.998 43.3049C150.998 43.7478 150.919 44.1624 150.762 44.5484C150.605 44.9345 150.387 45.2759 150.109 45.5725C149.834 45.8651 149.514 46.0948 149.146 46.2614C148.783 46.428 148.392 46.5113 147.973 46.5113ZM147.973 45.2434C148.307 45.2434 148.608 45.154 148.874 44.9751C149.14 44.7963 149.35 44.5606 149.503 44.268C149.661 43.9714 149.739 43.6503 149.739 43.3049C149.739 42.9513 149.659 42.6262 149.497 42.3295C149.34 42.0329 149.128 41.7972 148.862 41.6224C148.596 41.4436 148.299 41.3542 147.973 41.3542C147.642 41.3542 147.341 41.4436 147.071 41.6224C146.805 41.8012 146.593 42.039 146.436 42.3356C146.282 42.6323 146.206 42.9554 146.206 43.3049C146.206 43.6666 146.286 43.9937 146.448 44.2863C146.609 44.5789 146.823 44.8126 147.089 44.9873C147.359 45.158 147.654 45.2434 147.973 45.2434Z" fill="white" fill-opacity="0.36"/>
<path d="M157.422 42.5307V46.3528H156.163V42.8416C156.163 42.5693 156.096 42.3214 155.963 42.0979C155.834 41.8744 155.659 41.6976 155.437 41.5675C155.219 41.4334 154.973 41.3664 154.699 41.3664C154.432 41.3664 154.188 41.4334 153.966 41.5675C153.745 41.6976 153.567 41.8744 153.434 42.0979C153.301 42.3214 153.234 42.5693 153.234 42.8416V46.3528H151.976V40.2569H153.234V40.9031C153.444 40.6511 153.702 40.452 154.009 40.3057C154.315 40.1594 154.646 40.0862 155.001 40.0862C155.449 40.0862 155.856 40.196 156.224 40.4154C156.591 40.6349 156.881 40.9295 157.095 41.2993C157.313 41.6691 157.422 42.0796 157.422 42.5307Z" fill="white" fill-opacity="0.36"/>
<path d="M159.047 46.5113C158.861 46.5113 158.704 46.4463 158.575 46.3162C158.45 46.1862 158.387 46.0277 158.387 45.8408C158.387 45.6579 158.45 45.5014 158.575 45.3714C158.704 45.2413 158.861 45.1763 159.047 45.1763C159.233 45.1763 159.39 45.2413 159.519 45.3714C159.648 45.5014 159.713 45.6579 159.713 45.8408C159.713 46.0277 159.648 46.1862 159.519 46.3162C159.39 46.4463 159.233 46.5113 159.047 46.5113Z" fill="white" fill-opacity="0.36"/>
<path d="M73.225 10.6678H78.4444V32.0034H73.225L72.9897 29.3578C72.405 30.3108 71.6278 31.086 70.658 31.6834C69.7025 32.2666 68.5688 32.5581 67.2568 32.5581C65.6739 32.5581 64.1907 32.2594 62.8074 31.662C61.4241 31.0646 60.2048 30.2397 59.1495 29.1871C58.1085 28.1346 57.2885 26.9184 56.6895 25.5387C56.1048 24.159 55.8125 22.6798 55.8125 21.1009C55.8125 19.579 56.0906 18.1495 56.6468 16.8125C57.2172 15.4754 58.0087 14.302 59.0212 13.2921C60.0337 12.2822 61.2031 11.4928 62.5293 10.9238C63.8556 10.3549 65.2817 10.0704 66.8076 10.0704C68.2194 10.0704 69.4815 10.3833 70.5938 11.0092C71.7205 11.635 72.6759 12.4315 73.4603 13.3988L73.225 10.6678ZM67.1285 27.5443C68.2408 27.5443 69.2248 27.2669 70.0805 26.7122C70.9361 26.1575 71.6064 25.4107 72.0912 24.4719C72.5761 23.519 72.8185 22.4735 72.8185 21.3356C72.8185 20.1835 72.5761 19.138 72.0912 18.1993C71.6064 17.2463 70.929 16.4924 70.0591 15.9377C69.2034 15.383 68.2266 15.1056 67.1285 15.1056C66.0304 15.1056 65.025 15.3901 64.1123 15.959C63.2139 16.5138 62.4937 17.2605 61.9518 18.1993C61.4241 19.138 61.1603 20.1835 61.1603 21.3356C61.1603 22.4877 61.4313 23.5332 61.9732 24.4719C62.5151 25.4107 63.2353 26.1575 64.1337 26.7122C65.0464 27.2669 66.0446 27.5443 67.1285 27.5443Z" fill="white"/>
<path d="M81.35 32.0034L89.1792 21.2929L81.4141 10.6465H87.8529L92.3878 16.8551L96.9442 10.6465H103.383L95.6179 21.2929L103.447 32.0034H97.0084L92.3878 25.6881L87.7887 32.0034H81.35Z" fill="white"/>
<path d="M114.931 32.5581C112.963 32.5581 111.166 32.0532 109.54 31.0433C107.929 30.0334 106.638 28.6751 105.668 26.9682C104.713 25.2614 104.235 23.3767 104.235 21.3143C104.235 19.7639 104.513 18.3131 105.07 16.9618C105.626 15.5963 106.389 14.4015 107.358 13.3774C108.342 12.3391 109.483 11.5283 110.781 10.9452C112.079 10.362 113.462 10.0704 114.931 10.0704C116.599 10.0704 118.125 10.426 119.509 11.1372C120.906 11.8342 122.09 12.7943 123.06 14.0175C124.029 15.2407 124.735 16.6347 125.177 18.1993C125.619 19.7639 125.719 21.3996 125.477 23.1065H109.84C110.039 23.903 110.367 24.6213 110.824 25.2614C111.28 25.8872 111.858 26.3921 112.556 26.7762C113.255 27.146 114.047 27.338 114.931 27.3523C115.844 27.3665 116.671 27.1531 117.412 26.7122C118.168 26.257 118.796 25.6454 119.295 24.8773L124.621 26.1148C123.751 28.0065 122.453 29.5569 120.728 30.7659C119.002 31.9607 117.07 32.5581 114.931 32.5581ZM109.669 19.202H120.193C120.036 18.3486 119.701 17.5805 119.188 16.8978C118.689 16.2008 118.068 15.6461 117.327 15.2336C116.585 14.8211 115.787 14.6149 114.931 14.6149C114.075 14.6149 113.284 14.8211 112.556 15.2336C111.829 15.6319 111.209 16.1795 110.695 16.8765C110.196 17.5592 109.854 18.3344 109.669 19.202Z" fill="white"/>
<path d="M128.623 32.0034V0H133.842V32.0034H128.623Z" fill="white"/>
<path d="M154.779 10.6678H159.999V32.0034H154.779L154.544 29.3578C153.959 30.3108 153.182 31.086 152.212 31.6834C151.257 32.2666 150.123 32.5581 148.811 32.5581C147.228 32.5581 145.745 32.2594 144.362 31.662C142.978 31.0646 141.759 30.2397 140.704 29.1871C139.663 28.1346 138.843 26.9184 138.244 25.5387C137.659 24.159 137.367 22.6798 137.367 21.1009C137.367 19.579 137.645 18.1495 138.201 16.8125C138.771 15.4754 139.563 14.302 140.575 13.2921C141.588 12.2822 142.757 11.4928 144.083 10.9238C145.41 10.3549 146.836 10.0704 148.362 10.0704C149.774 10.0704 151.036 10.3833 152.148 11.0092C153.275 11.635 154.23 12.4315 155.014 13.3988L154.779 10.6678ZM148.683 27.5443C149.795 27.5443 150.779 27.2669 151.635 26.7122C152.49 26.1575 153.16 25.4107 153.645 24.4719C154.13 23.519 154.373 22.4735 154.373 21.3356C154.373 20.1835 154.13 19.138 153.645 18.1993C153.16 17.2463 152.483 16.4924 151.613 15.9377C150.758 15.383 149.781 15.1056 148.683 15.1056C147.584 15.1056 146.579 15.3901 145.666 15.959C144.768 16.5138 144.048 17.2605 143.506 18.1993C142.978 19.138 142.714 20.1835 142.714 21.3356C142.714 22.4877 142.985 23.5332 143.527 24.4719C144.069 25.4107 144.789 26.1575 145.688 26.7122C146.6 27.2669 147.599 27.5443 148.683 27.5443Z" fill="white"/>
<rect width="46.5116" height="46.5116" rx="15" fill="#3B38EB"/>
<mask id="mask0_557_3298" style="mask-type:alpha" maskUnits="userSpaceOnUse" x="0" y="0" width="47" height="47">
<rect width="46.5116" height="46.5116" rx="15" fill="#2521E7"/>
</mask>
<g mask="url(#mask0_557_3298)">
<path d="M23.0843 5.7666C17.2177 18.368 9.57322 30.7692 0.15625 42.9797L5.29653 51.649C13.0056 43.4776 18.9092 34.7809 23.0033 25.5547C25.535 30.1726 27.906 34.2281 30.1233 37.7173C27.7784 36.6818 24.1675 36.5666 19.2922 37.362C17.0667 41.1186 13.8362 45.4608 9.60343 50.3818C19.5558 45.1591 30.0904 45.5609 41.1975 51.5928C42.5745 48.0831 44.1451 45.2139 45.9066 42.9797C38.3871 34.3228 30.7782 21.9216 23.0843 5.7666Z" fill="white"/>
<path d="M23.0843 5.7666C17.2177 18.368 9.57322 30.7692 0.15625 42.9797L5.29653 51.649C13.0056 43.4776 18.9092 34.7809 23.0033 25.5547C25.535 30.1726 27.906 34.2281 30.1233 37.7173C27.7784 36.6818 24.1675 36.5666 19.2922 37.362C17.0667 41.1186 13.8362 45.4608 9.60343 50.3818C19.5558 45.1591 30.0904 45.5609 41.1975 51.5928C42.5745 48.0831 44.1451 45.2139 45.9066 42.9797C38.3871 34.3228 30.7782 21.9216 23.0843 5.7666Z" fill="white"/>
<path d="M23.0039 25.5547L23.0862 5.7666C17.2197 18.368 9.57518 30.7692 0.158203 42.9797C6.43252 38.259 14.0482 32.4507 23.0039 25.5547Z" fill="white"/>
<path d="M23.0843 5.7666L23.002 25.5547C33.4569 33.4423 41.0918 39.252 45.9039 42.9797C38.3871 34.3228 30.7783 21.9216 23.0843 5.7666Z" fill="white"/>
<path d="M45.9059 42.9807C41.0965 39.2515 33.4629 33.4432 23.0039 25.5557C25.5356 30.1735 27.9067 34.2291 30.124 37.7182C32.0516 40.7533 33.8611 43.3592 35.5512 45.5385C37.6092 48.1883 39.4888 50.2072 41.1939 51.5938C42.571 48.0841 44.1416 45.2149 45.9031 42.9807H45.9059Z" fill="white"/>
<path d="M35.5513 45.5396C33.8612 43.36 32.053 40.7539 30.1241 37.7184C27.7791 36.6828 24.1683 36.5676 19.293 37.3632C26.7151 39.6497 32.134 42.3752 35.5554 45.5396H35.5513Z" fill="white"/>
<path d="M35.5509 45.5369C32.1295 42.3742 26.7105 39.649 19.2884 37.3613C17.0629 41.1179 13.8324 45.4601 9.59961 50.3811C19.552 45.1584 30.0866 45.5602 41.1936 51.5921C39.4884 50.2055 37.6048 48.1908 35.5509 45.5369Z" fill="white"/>
<path d="M5.29653 51.65C13.0056 43.4785 18.9092 34.7818 23.0033 25.5557C14.0476 32.4516 6.43195 38.26 0.15625 42.9807L5.29653 51.65Z" fill="white"/>
</g>
</svg>
