<svg width="172" height="50" viewBox="0 0 172 50" fill="none" xmlns="http://www.w3.org/2000/svg">
<path d="M127.376 50C126.877 50 126.398 49.9214 125.938 49.7641C125.479 49.6068 125.078 49.3818 124.735 49.0891C124.392 48.792 124.147 48.4404 124 48.0341L125.268 47.5557C125.342 47.7654 125.483 47.9533 125.691 48.1193C125.904 48.2809 126.155 48.4076 126.446 48.4993C126.741 48.5911 127.051 48.637 127.376 48.637C127.723 48.637 128.048 48.5802 128.352 48.4666C128.66 48.353 128.907 48.1957 129.093 47.9948C129.284 47.7938 129.38 47.5579 129.38 47.287C129.38 47.0074 129.28 46.7781 129.08 46.599C128.885 46.4198 128.634 46.2779 128.326 46.173C128.022 46.0682 127.706 45.9895 127.376 45.9371C126.739 45.8322 126.166 45.6793 125.659 45.4784C125.156 45.2774 124.757 44.9956 124.462 44.633C124.171 44.2704 124.026 43.7986 124.026 43.2176C124.026 42.6715 124.18 42.1953 124.488 41.789C124.8 41.3827 125.21 41.0682 125.717 40.8453C126.229 40.6182 126.782 40.5046 127.376 40.5046C127.866 40.5046 128.339 40.5832 128.794 40.7405C129.254 40.8934 129.657 41.1184 130.004 41.4155C130.355 41.7082 130.607 42.0642 130.759 42.4836L129.477 42.9489C129.403 42.7348 129.262 42.5491 129.054 42.3919C128.846 42.2302 128.595 42.1035 128.3 42.0118C128.009 41.9201 127.701 41.8742 127.376 41.8742C127.029 41.8698 126.704 41.9266 126.4 42.0446C126.101 42.1581 125.856 42.3154 125.665 42.5164C125.474 42.7173 125.379 42.9511 125.379 43.2176C125.379 43.5452 125.468 43.7942 125.646 43.9646C125.824 44.135 126.062 44.2617 126.361 44.3447C126.665 44.4233 127.003 44.4954 127.376 44.5609C127.974 44.6571 128.527 44.8165 129.035 45.0393C129.546 45.2621 129.956 45.5592 130.264 45.9305C130.576 46.2975 130.733 46.7497 130.733 47.287C130.733 47.8287 130.576 48.3049 130.264 48.7156C129.956 49.1219 129.546 49.4386 129.035 49.6658C128.527 49.8886 127.974 50 127.376 50Z" fill="white" fill-opacity="0.36"/>
<path d="M134.882 50C134.283 50 133.737 49.8449 133.243 49.5347C132.753 49.2246 132.36 48.8095 132.065 48.2896C131.775 47.7654 131.629 47.1865 131.629 46.5531C131.629 46.0725 131.714 45.6247 131.883 45.2097C132.052 44.7903 132.284 44.4233 132.579 44.1088C132.878 43.7899 133.225 43.5408 133.62 43.3617C134.015 43.1826 134.435 43.0931 134.882 43.0931C135.48 43.0931 136.025 43.2481 136.515 43.5583C137.009 43.8685 137.401 44.2857 137.692 44.81C137.987 45.3342 138.134 45.9152 138.134 46.5531C138.134 47.0293 138.05 47.4749 137.881 47.8899C137.712 48.3049 137.477 48.6719 137.178 48.9908C136.883 49.3054 136.538 49.5522 136.144 49.7313C135.754 49.9104 135.333 50 134.882 50ZM134.882 48.637C135.242 48.637 135.565 48.5408 135.851 48.3486C136.137 48.1564 136.363 47.903 136.528 47.5885C136.697 47.2696 136.781 46.9244 136.781 46.5531C136.781 46.173 136.695 45.8235 136.521 45.5046C136.352 45.1857 136.124 44.9323 135.838 44.7444C135.552 44.5522 135.233 44.4561 134.882 44.4561C134.526 44.4561 134.203 44.5522 133.913 44.7444C133.626 44.9367 133.399 45.1922 133.23 45.5111C133.065 45.8301 132.982 46.1774 132.982 46.5531C132.982 46.9419 133.069 47.2936 133.243 47.6081C133.416 47.9227 133.646 48.1739 133.932 48.3617C134.223 48.5452 134.539 48.637 134.882 48.637Z" fill="white" fill-opacity="0.36"/>
<path d="M139.096 49.8296V40H140.449V49.8296H139.096Z" fill="white" fill-opacity="0.36"/>
<path d="M141.746 47.3722V43.2765H143.099V47.038C143.099 47.3307 143.17 47.5972 143.313 47.8375C143.456 48.0778 143.647 48.27 143.886 48.4142C144.124 48.554 144.386 48.6239 144.673 48.6239C144.963 48.6239 145.226 48.554 145.46 48.4142C145.698 48.27 145.887 48.0778 146.026 47.8375C146.169 47.5972 146.24 47.3307 146.24 47.038V43.2765H147.593L147.6 49.8296H146.247L146.24 49.1219C146.019 49.3927 145.744 49.6068 145.414 49.7641C145.085 49.9214 144.731 50 144.354 50C143.873 50 143.435 49.882 143.04 49.6461C142.645 49.4102 142.331 49.0935 142.097 48.6959C141.863 48.2984 141.746 47.8571 141.746 47.3722Z" fill="white" fill-opacity="0.36"/>
<path d="M152.339 44.6396H150.973L150.966 49.8296H149.613L149.62 44.6396H148.586V43.2765H149.62L149.613 41.2189H150.966L150.973 43.2765H152.339V44.6396Z" fill="white" fill-opacity="0.36"/>
<path d="M153.415 43.2765H154.768V49.8296H153.415V43.2765ZM154.104 42.3263C153.896 42.3263 153.722 42.2586 153.584 42.1232C153.445 41.9878 153.376 41.8174 153.376 41.6121C153.376 41.4111 153.445 41.2429 153.584 41.1075C153.722 40.9677 153.894 40.8978 154.098 40.8978C154.297 40.8978 154.466 40.9677 154.605 41.1075C154.744 41.2429 154.813 41.4111 154.813 41.6121C154.813 41.8174 154.744 41.9878 154.605 42.1232C154.471 42.2586 154.304 42.3263 154.104 42.3263Z" fill="white" fill-opacity="0.36"/>
<path d="M159.072 50C158.473 50 157.927 49.8449 157.433 49.5347C156.943 49.2246 156.55 48.8095 156.255 48.2896C155.965 47.7654 155.819 47.1865 155.819 46.5531C155.819 46.0725 155.904 45.6247 156.073 45.2097C156.242 44.7903 156.474 44.4233 156.769 44.1088C157.068 43.7899 157.415 43.5408 157.81 43.3617C158.204 43.1826 158.625 43.0931 159.072 43.0931C159.67 43.0931 160.214 43.2481 160.705 43.5583C161.199 43.8685 161.591 44.2857 161.882 44.81C162.177 45.3342 162.324 45.9152 162.324 46.5531C162.324 47.0293 162.24 47.4749 162.071 47.8899C161.901 48.3049 161.667 48.6719 161.368 48.9908C161.073 49.3054 160.728 49.5522 160.334 49.7313C159.943 49.9104 159.523 50 159.072 50ZM159.072 48.637C159.432 48.637 159.755 48.5408 160.041 48.3486C160.327 48.1564 160.553 47.903 160.718 47.5885C160.887 47.2696 160.971 46.9244 160.971 46.5531C160.971 46.173 160.884 45.8235 160.711 45.5046C160.542 45.1857 160.314 44.9323 160.028 44.7444C159.742 44.5522 159.423 44.4561 159.072 44.4561C158.716 44.4561 158.393 44.5522 158.103 44.7444C157.816 44.9367 157.589 45.1922 157.42 45.5111C157.255 45.8301 157.172 46.1774 157.172 46.5531C157.172 46.9419 157.259 47.2936 157.433 47.6081C157.606 47.9227 157.836 48.1739 158.122 48.3617C158.413 48.5452 158.729 48.637 159.072 48.637Z" fill="white" fill-opacity="0.36"/>
<path d="M169.23 45.7208V49.8296H167.877V46.055C167.877 45.7623 167.805 45.4959 167.662 45.2556C167.523 45.0153 167.334 44.8253 167.096 44.6855C166.862 44.5413 166.597 44.4692 166.302 44.4692C166.016 44.4692 165.754 44.5413 165.515 44.6855C165.277 44.8253 165.086 45.0153 164.943 45.2556C164.8 45.4959 164.728 45.7623 164.728 46.055V49.8296H163.375V43.2765H164.728V43.9712C164.954 43.7003 165.231 43.4862 165.561 43.329C165.89 43.1717 166.246 43.0931 166.628 43.0931C167.109 43.0931 167.547 43.211 167.942 43.4469C168.336 43.6828 168.648 43.9996 168.878 44.3971C169.112 44.7947 169.23 45.2359 169.23 45.7208Z" fill="white" fill-opacity="0.36"/>
<path d="M170.977 50C170.777 50 170.608 49.9301 170.469 49.7903C170.335 49.6505 170.268 49.4801 170.268 49.2792C170.268 49.0826 170.335 48.9144 170.469 48.7746C170.608 48.6348 170.777 48.5649 170.977 48.5649C171.176 48.5649 171.345 48.6348 171.484 48.7746C171.623 48.9144 171.692 49.0826 171.692 49.2792C171.692 49.4801 171.623 49.6505 171.484 49.7903C171.345 49.9301 171.176 50 170.977 50Z" fill="white" fill-opacity="0.36"/>
<path d="M78.7184 11.4679H84.3293V34.4037H78.7184L78.4655 31.5596C77.8369 32.5841 77.0014 33.4174 75.9589 34.0596C74.9318 34.6865 73.713 35 72.3026 35C70.601 35 69.0066 34.6789 67.5196 34.0367C66.0325 33.3945 64.7218 32.5076 63.5873 31.3761C62.4682 30.2446 61.5867 28.9373 60.9428 27.4541C60.3143 25.9709 60 24.3807 60 22.6835C60 21.0474 60.2989 19.5107 60.8968 18.0734C61.51 16.6361 62.3609 15.3746 63.4493 14.289C64.5378 13.2034 65.7949 12.3547 67.2206 11.7431C68.6463 11.1315 70.1794 10.8257 71.8197 10.8257C73.3374 10.8257 74.6942 11.1621 75.89 11.8349C77.1011 12.5076 78.1282 13.3639 78.9714 14.4037L78.7184 11.4679ZM72.1647 29.6101C73.3604 29.6101 74.4182 29.3119 75.3381 28.7156C76.2579 28.1193 76.9784 27.3165 77.4996 26.3073C78.0209 25.2829 78.2815 24.159 78.2815 22.9358C78.2815 21.6972 78.0209 20.5734 77.4996 19.5642C76.9784 18.5398 76.2502 17.7294 75.3151 17.133C74.3952 16.5367 73.3451 16.2385 72.1647 16.2385C70.9842 16.2385 69.9034 16.5443 68.9223 17.156C67.9565 17.7523 67.1823 18.555 66.5997 19.5642C66.0325 20.5734 65.7489 21.6972 65.7489 22.9358C65.7489 24.1743 66.0402 25.2982 66.6227 26.3073C67.2053 27.3165 67.9795 28.1193 68.9453 28.7156C69.9264 29.3119 70.9996 29.6101 72.1647 29.6101Z" fill="white"/>
<path d="M87.4528 34.4037L95.8692 22.8899L87.5218 11.445H94.4434L99.3185 18.1193L104.217 11.445H111.138L102.791 22.8899L111.207 34.4037H104.286L99.3185 27.6147L94.3745 34.4037H87.4528Z" fill="white"/>
<path d="M123.552 35C121.437 35 119.505 34.4572 117.757 33.3716C116.025 32.2859 114.638 30.8257 113.595 28.9908C112.568 27.156 112.054 25.13 112.054 22.9128C112.054 21.2462 112.353 19.6865 112.951 18.2339C113.549 16.7661 114.369 15.4817 115.412 14.3807C116.47 13.2645 117.696 12.393 119.091 11.7661C120.486 11.1391 121.973 10.8257 123.552 10.8257C125.346 10.8257 126.986 11.208 128.473 11.9725C129.976 12.7217 131.248 13.7538 132.291 15.0688C133.333 16.3838 134.092 17.8823 134.567 19.5642C135.042 21.2462 135.15 23.0046 134.889 24.8395H118.079C118.294 25.6957 118.647 26.4679 119.137 27.156C119.628 27.8287 120.249 28.3716 121 28.7844C121.751 29.182 122.602 29.3884 123.552 29.4037C124.533 29.419 125.423 29.1896 126.22 28.7156C127.032 28.2263 127.707 27.5688 128.243 26.7431L133.969 28.0734C133.034 30.107 131.639 31.7737 129.784 33.0734C127.929 34.3578 125.852 35 123.552 35ZM117.895 20.6422H129.209C129.041 19.7248 128.68 18.8991 128.128 18.1651C127.592 17.4159 126.925 16.8196 126.128 16.3761C125.331 15.9327 124.472 15.711 123.552 15.711C122.632 15.711 121.782 15.9327 121 16.3761C120.218 16.8043 119.551 17.393 118.999 18.1422C118.463 18.8761 118.095 19.7095 117.895 20.6422Z" fill="white"/>
<path d="M138.271 34.4037V0H143.882V34.4037H138.271Z" fill="white"/>
<path d="M166.389 11.4679H172V34.4037H166.389L166.136 31.5596C165.508 32.5841 164.672 33.4174 163.63 34.0596C162.602 34.6865 161.384 35 159.973 35C158.272 35 156.677 34.6789 155.19 34.0367C153.703 33.3945 152.392 32.5076 151.258 31.3761C150.139 30.2446 149.257 28.9373 148.613 27.4541C147.985 25.9709 147.671 24.3807 147.671 22.6835C147.671 21.0474 147.97 19.5107 148.568 18.0734C149.181 16.6361 150.032 15.3746 151.12 14.289C152.208 13.2034 153.466 12.3547 154.891 11.7431C156.317 11.1315 157.85 10.8257 159.49 10.8257C161.008 10.8257 162.365 11.1621 163.561 11.8349C164.772 12.5076 165.799 13.3639 166.642 14.4037L166.389 11.4679ZM159.835 29.6101C161.031 29.6101 162.089 29.3119 163.009 28.7156C163.929 28.1193 164.649 27.3165 165.17 26.3073C165.692 25.2829 165.952 24.159 165.952 22.9358C165.952 21.6972 165.692 20.5734 165.17 19.5642C164.649 18.5398 163.921 17.7294 162.986 17.133C162.066 16.5367 161.016 16.2385 159.835 16.2385C158.655 16.2385 157.574 16.5443 156.593 17.156C155.627 17.7523 154.853 18.555 154.27 19.5642C153.703 20.5734 153.42 21.6972 153.42 22.9358C153.42 24.1743 153.711 25.2982 154.293 26.3073C154.876 27.3165 155.65 28.1193 156.616 28.7156C157.597 29.3119 158.67 29.6101 159.835 29.6101Z" fill="white"/>
<rect width="50" height="50" rx="15" fill="#3B38EB"/>
<mask id="mask0_700_215" style="mask-type:alpha" maskUnits="userSpaceOnUse" x="0" y="0" width="50" height="50">
<rect width="50" height="50" rx="15" fill="#2521E7"/>
</mask>
<g mask="url(#mask0_700_215)">
<path d="M24.6368 6.19922C18.3335 19.7457 10.1199 33.077 0.00195312 46.2033L5.52487 55.5228C13.8078 46.7385 20.1509 37.3895 24.5497 27.4715C27.2699 32.4357 29.8175 36.7954 32.1998 40.5462C29.6803 39.433 25.8007 39.3092 20.5624 40.1643C18.1712 44.2026 14.7002 48.8705 10.1524 54.1605C20.8457 48.5461 32.1644 48.9781 44.0983 55.4624C45.5778 51.6895 47.2654 48.6051 49.158 46.2033C41.0787 36.8971 32.9035 23.5658 24.6368 6.19922Z" fill="white"/>
</g>
</svg>
