<?xml version="1.0" encoding="utf-8"?>
<!-- Generator: Adobe Illustrator 18.0.0, SVG Export Plug-In . SVG Version: 6.00 Build 0)  -->
<!DOCTYPE svg PUBLIC "-//W3C//DTD SVG 1.1//EN" "http://www.w3.org/Graphics/SVG/1.1/DTD/svg11.dtd">
<svg version="1.1" id="Layer_1" xmlns="http://www.w3.org/2000/svg" xmlns:xlink="http://www.w3.org/1999/xlink" x="0px" y="0px"
	 viewBox="0 0 200 200" enable-background="new 0 0 200 200" xml:space="preserve">
<path id="XMLID_1_" fill="#87C65D" d="M151.3,168H48.7c-9.2,0-16.7-7.5-16.7-16.7V48.7C32,39.5,39.5,32,48.7,32h102.7
	c9.2,0,16.7,7.5,16.7,16.7v102.7C168,160.5,160.5,168,151.3,168z"/>
<g opacity="0.3">
	<defs>
		<path id="XMLID_2_" opacity="0.3" d="M151.3,168H48.7c-9.2,0-16.7-7.5-16.7-16.7V48.7C32,39.5,39.5,32,48.7,32h102.7
			c9.2,0,16.7,7.5,16.7,16.7v102.7C168,160.5,160.5,168,151.3,168z"/>
	</defs>
	<clipPath id="XMLID_4_">
		<use xlink:href="#XMLID_2_"  overflow="visible"/>
	</clipPath>
	<polygon clip-path="url(#XMLID_4_)" points="51.4,153.7 65.7,168 168,168 168,114.2 147.8,94.1 	"/>
</g>
<path fill="#FFFFFF" d="M146.4,92.9L83.5,47.3c-4.9-3.6-10.1-1.7-11.4,4.3L50.5,148c-1.3,5.9,2.2,8.2,7.8,5.1l86.8-48.1
	C150.8,101.9,151.3,96.4,146.4,92.9z"/>
</svg>
