<svg width="160" height="72" viewBox="0 0 160 72" fill="none" xmlns="http://www.w3.org/2000/svg">
<path d="M122.381 54.9996C121.961 54.9996 121.557 54.9336 121.169 54.8014C120.782 54.6693 120.444 54.4803 120.155 54.2345C119.866 53.9849 119.659 53.6895 119.535 53.3482L120.604 52.9464C120.667 53.1225 120.785 53.2803 120.961 53.4198C121.14 53.5556 121.352 53.662 121.597 53.7391C121.846 53.8161 122.107 53.8547 122.381 53.8547C122.674 53.8547 122.948 53.8069 123.204 53.7115C123.463 53.6161 123.672 53.484 123.829 53.3152C123.99 53.1464 124.07 52.9482 124.07 52.7207C124.07 52.4858 123.986 52.2932 123.818 52.1427C123.653 51.9923 123.441 51.873 123.182 51.7849C122.926 51.6969 122.659 51.6308 122.381 51.5868C121.844 51.4987 121.361 51.3703 120.934 51.2014C120.509 51.0326 120.173 50.7959 119.925 50.4914C119.68 50.1868 119.557 49.7904 119.557 49.3024C119.557 48.8436 119.687 48.4436 119.946 48.1024C120.21 47.7611 120.555 47.4969 120.983 47.3097C121.414 47.1189 121.88 47.0235 122.381 47.0235C122.794 47.0235 123.193 47.0895 123.577 47.2216C123.964 47.3501 124.304 47.5391 124.597 47.7886C124.893 48.0345 125.105 48.3336 125.233 48.6858L124.152 49.0767C124.09 48.8969 123.971 48.7409 123.796 48.6088C123.621 48.473 123.408 48.3666 123.16 48.2895C122.915 48.2125 122.655 48.1739 122.381 48.1739C122.089 48.1703 121.815 48.218 121.559 48.317C121.306 48.4125 121.1 48.5446 120.939 48.7134C120.778 48.8822 120.698 49.0785 120.698 49.3024C120.698 49.5776 120.773 49.7868 120.923 49.9299C121.072 50.073 121.273 50.1794 121.526 50.2492C121.782 50.3152 122.067 50.3758 122.381 50.4308C122.886 50.5115 123.352 50.6455 123.78 50.8326C124.211 51.0198 124.556 51.2693 124.816 51.5813C125.079 51.8895 125.211 52.2693 125.211 52.7207C125.211 53.1758 125.079 53.5758 124.816 53.9207C124.556 54.262 124.211 54.528 123.78 54.7189C123.352 54.906 122.886 54.9996 122.381 54.9996Z" fill="white"/>
<path d="M128.709 54.9996C128.204 54.9996 127.744 54.8693 127.327 54.6088C126.914 54.3482 126.583 53.9996 126.334 53.5629C126.089 53.1225 125.967 52.6363 125.967 52.1042C125.967 51.7005 126.038 51.3244 126.181 50.9758C126.323 50.6235 126.519 50.3152 126.768 50.051C127.02 49.7831 127.312 49.5739 127.645 49.4235C127.978 49.273 128.332 49.1978 128.709 49.1978C129.213 49.1978 129.672 49.3281 130.085 49.5886C130.502 49.8492 130.833 50.1996 131.078 50.64C131.326 51.0803 131.451 51.5684 131.451 52.1042C131.451 52.5042 131.379 52.8785 131.237 53.2271C131.094 53.5758 130.897 53.884 130.645 54.1519C130.396 54.4161 130.105 54.6235 129.773 54.7739C129.444 54.9244 129.089 54.9996 128.709 54.9996ZM128.709 53.8547C129.012 53.8547 129.285 53.7739 129.526 53.6125C129.767 53.451 129.957 53.2381 130.096 52.9739C130.239 52.706 130.31 52.4161 130.31 52.1042C130.31 51.7849 130.237 51.4914 130.091 51.2235C129.948 50.9556 129.756 50.7427 129.515 50.5849C129.274 50.4235 129.005 50.3427 128.709 50.3427C128.409 50.3427 128.137 50.4235 127.892 50.5849C127.65 50.7464 127.459 50.9611 127.316 51.229C127.177 51.4969 127.108 51.7886 127.108 52.1042C127.108 52.4308 127.181 52.7262 127.327 52.9904C127.473 53.2547 127.667 53.4657 127.908 53.6235C128.153 53.7776 128.42 53.8547 128.709 53.8547Z" fill="white"/>
<path d="M132.262 54.8565V46.5996H133.402V54.8565H132.262Z" fill="white"/>
<path d="M134.495 52.7923V49.3519H135.636V52.5115C135.636 52.7574 135.696 52.9813 135.817 53.1831C135.937 53.3849 136.098 53.5464 136.299 53.6675C136.5 53.7849 136.721 53.8436 136.963 53.8436C137.208 53.8436 137.429 53.7849 137.626 53.6675C137.827 53.5464 137.986 53.3849 138.103 53.1831C138.224 52.9813 138.284 52.7574 138.284 52.5115V49.3519H139.425L139.43 54.8565H138.29L138.284 54.262C138.098 54.4895 137.866 54.6693 137.588 54.8014C137.31 54.9336 137.012 54.9996 136.694 54.9996C136.288 54.9996 135.919 54.9005 135.586 54.7024C135.254 54.5042 134.989 54.2381 134.791 53.9042C134.594 53.5703 134.495 53.1996 134.495 52.7923Z" fill="white"/>
<path d="M143.426 50.4969H142.274L142.268 54.8565H141.128L141.133 50.4969H140.261V49.3519H141.133L141.128 47.6235H142.268L142.274 49.3519H143.426V50.4969Z" fill="white"/>
<path d="M144.332 49.3519H145.473V54.8565H144.332V49.3519ZM144.914 48.5537C144.738 48.5537 144.592 48.4969 144.475 48.3831C144.358 48.2693 144.299 48.1262 144.299 47.9537C144.299 47.7849 144.358 47.6436 144.475 47.5299C144.592 47.4125 144.736 47.3537 144.908 47.3537C145.076 47.3537 145.219 47.4125 145.336 47.5299C145.453 47.6436 145.511 47.7849 145.511 47.9537C145.511 48.1262 145.453 48.2693 145.336 48.3831C145.222 48.4969 145.082 48.5537 144.914 48.5537Z" fill="white"/>
<path d="M149.101 54.9996C148.597 54.9996 148.136 54.8693 147.72 54.6088C147.306 54.3482 146.976 53.9996 146.727 53.5629C146.482 53.1225 146.36 52.6363 146.36 52.1042C146.36 51.7005 146.431 51.3244 146.573 50.9758C146.716 50.6235 146.912 50.3152 147.16 50.051C147.412 49.7831 147.705 49.5739 148.038 49.4235C148.37 49.273 148.725 49.1978 149.101 49.1978C149.606 49.1978 150.065 49.3281 150.478 49.5886C150.895 49.8492 151.225 50.1996 151.47 50.64C151.719 51.0803 151.843 51.5684 151.843 52.1042C151.843 52.5042 151.772 52.8785 151.629 53.2271C151.487 53.5758 151.289 53.884 151.037 54.1519C150.789 54.4161 150.498 54.6235 150.165 54.7739C149.836 54.9244 149.482 54.9996 149.101 54.9996ZM149.101 53.8547C149.405 53.8547 149.677 53.7739 149.918 53.6125C150.16 53.451 150.35 53.2381 150.489 52.9739C150.631 52.706 150.703 52.4161 150.703 52.1042C150.703 51.7849 150.63 51.4914 150.483 51.2235C150.341 50.9556 150.149 50.7427 149.908 50.5849C149.666 50.4235 149.398 50.3427 149.101 50.3427C148.802 50.3427 148.529 50.4235 148.284 50.5849C148.043 50.7464 147.851 50.9611 147.709 51.229C147.57 51.4969 147.5 51.7886 147.5 52.1042C147.5 52.4308 147.573 52.7262 147.72 52.9904C147.866 53.2547 148.059 53.4657 148.301 53.6235C148.546 53.7776 148.813 53.8547 149.101 53.8547Z" fill="white"/>
<path d="M157.665 51.4051V54.8565H156.524V51.6858C156.524 51.44 156.464 51.2161 156.343 51.0143C156.226 50.8125 156.067 50.6528 155.866 50.5354C155.669 50.4143 155.445 50.3537 155.197 50.3537C154.956 50.3537 154.734 50.4143 154.533 50.5354C154.332 50.6528 154.171 50.8125 154.051 51.0143C153.93 51.2161 153.87 51.44 153.87 51.6858V54.8565H152.729V49.3519H153.87V49.9354C154.06 49.7079 154.294 49.5281 154.572 49.3959C154.85 49.2638 155.149 49.1978 155.471 49.1978C155.877 49.1978 156.246 49.2969 156.579 49.495C156.911 49.6932 157.175 49.9592 157.368 50.2932C157.566 50.6271 157.665 50.9978 157.665 51.4051Z" fill="white"/>
<path d="M159.138 54.9996C158.969 54.9996 158.827 54.9409 158.71 54.8235C158.596 54.706 158.54 54.5629 158.54 54.3941C158.54 54.229 158.596 54.0877 158.71 53.9703C158.827 53.8528 158.969 53.7941 159.138 53.7941C159.306 53.7941 159.448 53.8528 159.565 53.9703C159.682 54.0877 159.741 54.229 159.741 54.3941C159.741 54.5629 159.682 54.706 159.565 54.8235C159.448 54.9409 159.306 54.9996 159.138 54.9996Z" fill="white"/>
<path d="M81.3616 22.633H86.0917V41.8991H81.3616L81.1483 39.5101C80.6184 40.3706 79.9141 41.0706 79.0353 41.6101C78.1694 42.1367 77.1419 42.4 75.9529 42.4C74.5184 42.4 73.1743 42.1303 71.9207 41.5908C70.6671 41.0514 69.5621 40.3064 68.6057 39.356C67.6623 38.4055 66.9192 37.3073 66.3764 36.0615C65.8465 34.8156 65.5815 33.4798 65.5815 32.0541C65.5815 30.6798 65.8336 29.389 66.3376 28.1817C66.8545 26.9743 67.5718 25.9147 68.4894 25.0028C69.407 24.0908 70.4668 23.378 71.6687 22.8642C72.8706 22.3505 74.163 22.0936 75.5458 22.0936C76.8253 22.0936 77.969 22.3761 78.9771 22.9413C79.9981 23.5064 80.864 24.2257 81.5748 25.0991L81.3616 22.633ZM75.8366 37.8725C76.8447 37.8725 77.7364 37.622 78.5118 37.1211C79.2873 36.6202 79.8947 35.9459 80.3341 35.0982C80.7735 34.2376 80.9932 33.2936 80.9932 32.2661C80.9932 31.2257 80.7735 30.2817 80.3341 29.4339C79.8947 28.5734 79.2808 27.8927 78.4925 27.3917C77.717 26.8908 76.8317 26.6404 75.8366 26.6404C74.8415 26.6404 73.9303 26.8972 73.1032 27.411C72.289 27.9119 71.6364 28.5862 71.1453 29.4339C70.6671 30.2817 70.428 31.2257 70.428 32.2661C70.428 33.3064 70.6735 34.2505 71.1646 35.0982C71.6557 35.9459 72.3084 36.6202 73.1226 37.1211C73.9497 37.622 74.8544 37.8725 75.8366 37.8725Z" fill="white"/>
<path d="M88.7248 41.8991L95.82 32.2275L88.783 22.6138H94.6181L98.7279 28.2202L102.857 22.6138H108.692L101.655 32.2275L108.75 41.8991H102.915L98.7279 36.1963L94.5599 41.8991H88.7248Z" fill="white"/>
<path d="M119.157 42.4C117.374 42.4 115.746 41.944 114.272 41.0321C112.812 40.1202 111.642 38.8936 110.763 37.3523C109.897 35.811 109.465 34.1092 109.465 32.2468C109.465 30.8468 109.717 29.5367 110.221 28.3165C110.725 27.0835 111.416 26.0046 112.295 25.0798C113.187 24.1422 114.221 23.4101 115.397 22.8835C116.573 22.3569 117.826 22.0936 119.157 22.0936C120.67 22.0936 122.052 22.4147 123.306 23.0569C124.573 23.6862 125.645 24.5532 126.524 25.6578C127.403 26.7624 128.043 28.0211 128.443 29.4339C128.844 30.8468 128.934 32.3239 128.715 33.8651H114.544C114.725 34.5844 115.022 35.233 115.435 35.811C115.849 36.3761 116.372 36.8321 117.006 37.1789C117.639 37.5128 118.356 37.6862 119.157 37.6991C119.985 37.7119 120.734 37.5193 121.406 37.1211C122.091 36.7101 122.66 36.1578 123.112 35.4642L127.939 36.5816C127.151 38.2899 125.975 39.6899 124.411 40.7817C122.847 41.8605 121.096 42.4 119.157 42.4ZM114.389 30.3394H123.926C123.784 29.5688 123.48 28.8752 123.015 28.2587C122.563 27.6294 122.001 27.1284 121.329 26.756C120.657 26.3835 119.933 26.1972 119.157 26.1972C118.382 26.1972 117.665 26.3835 117.006 26.756C116.346 27.1156 115.784 27.6101 115.319 28.2394C114.867 28.856 114.557 29.556 114.389 30.3394Z" fill="white"/>
<path d="M131.566 41.8991V13H136.296V41.8991H131.566Z" fill="white"/>
<path d="M155.27 22.633H160V41.8991H155.27L155.057 39.5101C154.527 40.3706 153.822 41.0706 152.943 41.6101C152.078 42.1367 151.05 42.4 149.861 42.4C148.427 42.4 147.083 42.1303 145.829 41.5908C144.575 41.0514 143.47 40.3064 142.514 39.356C141.571 38.4055 140.827 37.3073 140.285 36.0615C139.755 34.8156 139.49 33.4798 139.49 32.0541C139.49 30.6798 139.742 29.389 140.246 28.1817C140.763 26.9743 141.48 25.9147 142.398 25.0028C143.315 24.0908 144.375 23.378 145.577 22.8642C146.779 22.3505 148.071 22.0936 149.454 22.0936C150.734 22.0936 151.877 22.3761 152.885 22.9413C153.906 23.5064 154.772 24.2257 155.483 25.0991L155.27 22.633ZM149.745 37.8725C150.753 37.8725 151.645 37.622 152.42 37.1211C153.195 36.6202 153.803 35.9459 154.242 35.0982C154.682 34.2376 154.901 33.2936 154.901 32.2661C154.901 31.2257 154.682 30.2817 154.242 29.4339C153.803 28.5734 153.189 27.8927 152.401 27.3917C151.625 26.8908 150.74 26.6404 149.745 26.6404C148.75 26.6404 147.839 26.8972 147.011 27.411C146.197 27.9119 145.545 28.5862 145.053 29.4339C144.575 30.2817 144.336 31.2257 144.336 32.2661C144.336 33.3064 144.582 34.2505 145.073 35.0982C145.564 35.9459 146.217 36.6202 147.031 37.1211C147.858 37.622 148.763 37.8725 149.745 37.8725Z" fill="white"/>
<g filter="url(#filter0_d_349_458)">
<rect x="15" y="13" width="42.151" height="42" fill="#3B38EB"/>
</g>
<mask id="mask0_349_458" style="mask-type:alpha" maskUnits="userSpaceOnUse" x="15" y="13" width="43" height="42">
<rect x="15" y="13" width="42.151" height="42" fill="#2521E7"/>
</mask>
<g mask="url(#mask0_349_458)">
<path d="M35.9206 18.25C30.604 29.6409 23.6762 40.8509 15.1421 51.8885L19.8005 59.725C26.7868 52.3385 32.1369 44.4772 35.8472 36.1373C38.1415 40.3116 40.2903 43.9775 42.2997 47.1315C40.1746 46.1955 36.9023 46.0913 32.484 46.8104C30.4672 50.2061 27.5395 54.1312 23.7036 58.5795C32.7229 53.8584 42.2698 54.2217 52.3356 59.6742C53.5835 56.5016 55.0069 53.908 56.6033 51.8885C49.7887 44.0631 42.8932 32.8532 35.9206 18.25Z" fill="white"/>
<path d="M35.9206 18.25C30.604 29.6409 23.6762 40.8509 15.1421 51.8885L19.8005 59.725C26.7868 52.3385 32.1369 44.4772 35.8472 36.1373C38.1415 40.3116 40.2903 43.9775 42.2997 47.1315C40.1746 46.1955 36.9023 46.0913 32.484 46.8104C30.4672 50.2061 27.5395 54.1312 23.7036 58.5795C32.7229 53.8584 42.2698 54.2217 52.3356 59.6742C53.5835 56.5016 55.0069 53.908 56.6033 51.8885C49.7887 44.0631 42.8932 32.8532 35.9206 18.25Z" fill="white"/>
<path d="M35.8474 36.1363L35.922 18.249C30.6055 29.64 23.6777 40.8499 15.1436 51.8875C20.8296 47.6202 27.7313 42.3698 35.8474 36.1363Z" fill="white"/>
<path d="M35.9213 18.249L35.8467 36.1363C45.3214 43.2662 52.2405 48.5178 56.6015 51.8875C49.7894 44.0621 42.8939 32.8522 35.9213 18.249Z" fill="white"/>
<path d="M56.6025 51.8859C52.244 48.515 45.3261 43.2646 35.8477 36.1348C38.142 40.309 40.2908 43.975 42.3002 47.129C44.0471 49.8726 45.687 52.2281 47.2186 54.1981C49.0837 56.5933 50.787 58.4183 52.3323 59.6717C53.5803 56.4991 55.0037 53.9055 56.6 51.8859H56.6025Z" fill="white"/>
<path d="M47.2179 54.1994C45.6863 52.2295 44.0477 49.8739 42.2995 47.1303C40.1744 46.1943 36.9021 46.0902 32.4839 46.8092C39.2101 48.8759 44.1211 51.3393 47.2217 54.1994H47.2179Z" fill="white"/>
<path d="M47.218 54.1978C44.1174 51.3389 39.2064 48.8755 32.4802 46.8076C30.4633 50.2033 27.5356 54.1284 23.6997 58.5767C32.7191 53.8557 42.266 54.2189 52.3317 59.6714C50.7864 58.418 49.0793 56.5968 47.218 54.1978Z" fill="white"/>
<path d="M19.8005 59.7225C26.7868 52.336 32.1369 44.4746 35.8472 36.1348C27.7311 42.3683 20.8294 47.6187 15.1421 51.8859L19.8005 59.7225Z" fill="white"/>
</g>
<defs>
<filter id="filter0_d_349_458" x="0" y="0" width="72.1509" height="72" filterUnits="userSpaceOnUse" color-interpolation-filters="sRGB">
<feFlood flood-opacity="0" result="BackgroundImageFix"/>
<feColorMatrix in="SourceAlpha" type="matrix" values="0 0 0 0 0 0 0 0 0 0 0 0 0 0 0 0 0 0 127 0" result="hardAlpha"/>
<feOffset dy="2"/>
<feGaussianBlur stdDeviation="7.5"/>
<feComposite in2="hardAlpha" operator="out"/>
<feColorMatrix type="matrix" values="0 0 0 0 0.145098 0 0 0 0 0.133333 0 0 0 0 0.729412 0 0 0 0.27 0"/>
<feBlend mode="normal" in2="BackgroundImageFix" result="effect1_dropShadow_349_458"/>
<feBlend mode="normal" in="SourceGraphic" in2="effect1_dropShadow_349_458" result="shape"/>
</filter>
</defs>
</svg>
