<svg width="160" height="47" viewBox="0 0 160 47" fill="none" xmlns="http://www.w3.org/2000/svg">
<path d="M118.489 46.5113C118.025 46.5113 117.58 46.4382 117.152 46.2919C116.724 46.1456 116.351 45.9363 116.033 45.664C115.714 45.3876 115.486 45.0605 115.349 44.6825L116.529 44.2375C116.597 44.4326 116.728 44.6074 116.922 44.7618C117.12 44.9122 117.354 45.03 117.624 45.1154C117.898 45.2007 118.187 45.2434 118.489 45.2434C118.812 45.2434 119.115 45.1905 119.397 45.0849C119.683 44.9792 119.913 44.8329 120.087 44.646C120.264 44.459 120.353 44.2396 120.353 43.9876C120.353 43.7275 120.26 43.5142 120.075 43.3475C119.893 43.1809 119.659 43.0488 119.373 42.9513C119.09 42.8538 118.796 42.7806 118.489 42.7319C117.896 42.6343 117.364 42.4921 116.892 42.3051C116.424 42.1182 116.053 41.8561 115.778 41.5188C115.508 41.1815 115.373 40.7426 115.373 40.2021C115.373 39.6941 115.516 39.2511 115.803 38.8732C116.093 38.4952 116.474 38.2026 116.946 37.9954C117.422 37.784 117.937 37.6784 118.489 37.6784C118.945 37.6784 119.385 37.7515 119.808 37.8978C120.236 38.0401 120.611 38.2493 120.934 38.5257C121.261 38.798 121.495 39.1292 121.636 39.5193L120.444 39.9521C120.375 39.753 120.244 39.5803 120.05 39.434C119.857 39.2836 119.623 39.1658 119.349 39.0804C119.078 38.9951 118.792 38.9524 118.489 38.9524C118.167 38.9483 117.864 39.0012 117.582 39.1109C117.303 39.2166 117.075 39.3629 116.898 39.5498C116.72 39.7367 116.632 39.9542 116.632 40.2021C116.632 40.5069 116.714 40.7385 116.88 40.897C117.045 41.0555 117.267 41.1733 117.545 41.2506C117.828 41.3237 118.142 41.3908 118.489 41.4517C119.046 41.5411 119.56 41.6895 120.032 41.8967C120.508 42.104 120.89 42.3803 121.176 42.7258C121.466 43.0671 121.612 43.4877 121.612 43.9876C121.612 44.4915 121.466 44.9345 121.176 45.3165C120.89 45.6945 120.508 45.9891 120.032 46.2004C119.56 46.4077 119.046 46.5113 118.489 46.5113Z" fill="white" fill-opacity="0.36"/>
<path d="M125.472 46.5113C124.915 46.5113 124.407 46.367 123.947 46.0785C123.491 45.79 123.126 45.4039 122.851 44.9203C122.581 44.4326 122.446 43.8941 122.446 43.3049C122.446 42.8578 122.525 42.4413 122.682 42.0552C122.839 41.6651 123.055 41.3237 123.329 41.0311C123.608 40.7344 123.931 40.5028 124.298 40.3362C124.665 40.1696 125.056 40.0862 125.472 40.0862C126.028 40.0862 126.534 40.2305 126.99 40.5191C127.45 40.8076 127.815 41.1957 128.086 41.6834C128.36 42.171 128.497 42.7115 128.497 43.3049C128.497 43.7478 128.418 44.1624 128.261 44.5484C128.104 44.9345 127.886 45.2759 127.608 45.5725C127.333 45.8651 127.013 46.0948 126.645 46.2614C126.282 46.428 125.891 46.5113 125.472 46.5113ZM125.472 45.2434C125.806 45.2434 126.107 45.154 126.373 44.9751C126.639 44.7963 126.849 44.5606 127.002 44.268C127.16 43.9714 127.238 43.6503 127.238 43.3049C127.238 42.9513 127.158 42.6262 126.996 42.3295C126.839 42.0329 126.627 41.7972 126.361 41.6224C126.095 41.4436 125.798 41.3542 125.472 41.3542C125.141 41.3542 124.84 41.4436 124.57 41.6224C124.304 41.8012 124.092 42.039 123.935 42.3356C123.781 42.6323 123.705 42.9554 123.705 43.3049C123.705 43.6666 123.785 43.9937 123.947 44.2863C124.108 44.5789 124.322 44.8126 124.588 44.9873C124.858 45.158 125.153 45.2434 125.472 45.2434Z" fill="white" fill-opacity="0.36"/>
<path d="M129.392 46.3528V37.209H130.651V46.3528H129.392Z" fill="white" fill-opacity="0.36"/>
<path d="M131.856 44.0669V40.2569H133.115V43.756C133.115 44.0283 133.181 44.2762 133.315 44.4997C133.448 44.7232 133.625 44.902 133.847 45.0361C134.069 45.1662 134.313 45.2312 134.579 45.2312C134.85 45.2312 135.094 45.1662 135.311 45.0361C135.533 44.902 135.709 44.7232 135.838 44.4997C135.971 44.2762 136.038 44.0283 136.038 43.756V40.2569H137.296L137.302 46.3528H136.044L136.038 45.6945C135.832 45.9464 135.576 46.1456 135.269 46.2919C134.962 46.4382 134.634 46.5113 134.283 46.5113C133.835 46.5113 133.428 46.4016 133.06 46.1821C132.693 45.9627 132.401 45.668 132.183 45.2982C131.965 44.9284 131.856 44.518 131.856 44.0669Z" fill="white" fill-opacity="0.36"/>
<path d="M141.711 41.5249H140.44L140.434 46.3528H139.175L139.181 41.5249H138.219V40.2569H139.181L139.175 38.3428H140.434L140.44 40.2569H141.711V41.5249Z" fill="white" fill-opacity="0.36"/>
<path d="M142.711 40.2569H143.97V46.3528H142.711V40.2569ZM143.353 39.373C143.159 39.373 142.998 39.31 142.869 39.1841C142.739 39.0581 142.675 38.8996 142.675 38.7086C142.675 38.5216 142.739 38.3652 142.869 38.2392C142.998 38.1091 143.157 38.0441 143.347 38.0441C143.532 38.0441 143.689 38.1091 143.819 38.2392C143.948 38.3652 144.012 38.5216 144.012 38.7086C144.012 38.8996 143.948 39.0581 143.819 39.1841C143.694 39.31 143.538 39.373 143.353 39.373Z" fill="white" fill-opacity="0.36"/>
<path d="M147.974 46.5113C147.417 46.5113 146.909 46.367 146.449 46.0785C145.993 45.79 145.628 45.4039 145.354 44.9203C145.083 44.4326 144.948 43.8941 144.948 43.3049C144.948 42.8578 145.027 42.4413 145.184 42.0552C145.342 41.6651 145.557 41.3237 145.832 41.0311C146.11 40.7344 146.433 40.5028 146.8 40.3362C147.167 40.1696 147.558 40.0862 147.974 40.0862C148.53 40.0862 149.037 40.2305 149.493 40.5191C149.952 40.8076 150.317 41.1957 150.588 41.6834C150.862 42.171 150.999 42.7115 150.999 43.3049C150.999 43.7478 150.921 44.1624 150.763 44.5484C150.606 44.9345 150.388 45.2759 150.11 45.5725C149.835 45.8651 149.515 46.0948 149.148 46.2614C148.785 46.428 148.393 46.5113 147.974 46.5113ZM147.974 45.2434C148.309 45.2434 148.609 45.154 148.875 44.9751C149.142 44.7963 149.351 44.5606 149.505 44.268C149.662 43.9714 149.741 43.6503 149.741 43.3049C149.741 42.9513 149.66 42.6262 149.499 42.3295C149.341 42.0329 149.129 41.7972 148.863 41.6224C148.597 41.4436 148.3 41.3542 147.974 41.3542C147.643 41.3542 147.342 41.4436 147.072 41.6224C146.806 41.8012 146.594 42.039 146.437 42.3356C146.283 42.6323 146.207 42.9554 146.207 43.3049C146.207 43.6666 146.288 43.9937 146.449 44.2863C146.61 44.5789 146.824 44.8126 147.09 44.9873C147.361 45.158 147.655 45.2434 147.974 45.2434Z" fill="white" fill-opacity="0.36"/>
<path d="M157.423 42.5307V46.3528H156.164V42.8416C156.164 42.5693 156.098 42.3214 155.964 42.0979C155.835 41.8744 155.66 41.6976 155.438 41.5675C155.22 41.4334 154.974 41.3664 154.7 41.3664C154.434 41.3664 154.19 41.4334 153.968 41.5675C153.746 41.6976 153.568 41.8744 153.435 42.0979C153.302 42.3214 153.235 42.5693 153.235 42.8416V46.3528H151.977V40.2569H153.235V40.9031C153.445 40.6511 153.703 40.452 154.01 40.3057C154.317 40.1594 154.647 40.0862 155.002 40.0862C155.45 40.0862 155.858 40.196 156.225 40.4154C156.592 40.6349 156.882 40.9295 157.096 41.2993C157.314 41.6691 157.423 42.0796 157.423 42.5307Z" fill="white" fill-opacity="0.36"/>
<path d="M159.048 46.5113C158.863 46.5113 158.705 46.4463 158.576 46.3162C158.451 46.1862 158.389 46.0277 158.389 45.8408C158.389 45.6579 158.451 45.5014 158.576 45.3714C158.705 45.2413 158.863 45.1763 159.048 45.1763C159.234 45.1763 159.391 45.2413 159.52 45.3714C159.649 45.5014 159.714 45.6579 159.714 45.8408C159.714 46.0277 159.649 46.1862 159.52 46.3162C159.391 46.4463 159.234 46.5113 159.048 46.5113Z" fill="white" fill-opacity="0.36"/>
<path d="M73.2264 10.6678H78.4458V32.0034H73.2264L72.9911 29.3578C72.4064 30.3108 71.6292 31.086 70.6594 31.6834C69.7039 32.2666 68.5702 32.5581 67.2582 32.5581C65.6753 32.5581 64.1921 32.2594 62.8088 31.662C61.4255 31.0646 60.2062 30.2397 59.1509 29.1871C58.1099 28.1346 57.2899 26.9184 56.6909 25.5387C56.1063 24.159 55.8139 22.6798 55.8139 21.1009C55.8139 19.579 56.092 18.1495 56.6482 16.8125C57.2186 15.4754 58.0101 14.302 59.0226 13.2921C60.0351 12.2822 61.2045 11.4928 62.5308 10.9238C63.857 10.3549 65.2831 10.0704 66.809 10.0704C68.2208 10.0704 69.4829 10.3833 70.5953 11.0092C71.7219 11.635 72.6773 12.4315 73.4617 13.3988L73.2264 10.6678ZM67.1299 27.5443C68.2422 27.5443 69.2262 27.2669 70.0819 26.7122C70.9375 26.1575 71.6078 25.4107 72.0926 24.4719C72.5775 23.519 72.8199 22.4735 72.8199 21.3356C72.8199 20.1835 72.5775 19.138 72.0926 18.1993C71.6078 17.2463 70.9304 16.4924 70.0605 15.9377C69.2048 15.383 68.228 15.1056 67.1299 15.1056C66.0318 15.1056 65.0264 15.3901 64.1137 15.959C63.2153 16.5138 62.4951 17.2605 61.9532 18.1993C61.4255 19.138 61.1617 20.1835 61.1617 21.3356C61.1617 22.4877 61.4327 23.5332 61.9746 24.4719C62.5165 25.4107 63.2367 26.1575 64.1351 26.7122C65.0478 27.2669 66.046 27.5443 67.1299 27.5443Z" fill="white"/>
<path d="M81.3514 32.0034L89.1806 21.2929L81.4155 10.6465H87.8543L92.3893 16.8551L96.9456 10.6465H103.384L95.6193 21.2929L103.449 32.0034H97.0098L92.3893 25.6881L87.7901 32.0034H81.3514Z" fill="white"/>
<path d="M114.932 32.5581C112.964 32.5581 111.167 32.0532 109.542 31.0433C107.93 30.0334 106.64 28.6751 105.67 26.9682C104.714 25.2614 104.237 23.3767 104.237 21.3143C104.237 19.7639 104.515 18.3131 105.071 16.9618C105.627 15.5963 106.39 14.4015 107.36 13.3774C108.344 12.3391 109.485 11.5283 110.782 10.9452C112.08 10.362 113.463 10.0704 114.932 10.0704C116.601 10.0704 118.127 10.426 119.51 11.1372C120.908 11.8342 122.091 12.7943 123.061 14.0175C124.031 15.2407 124.737 16.6347 125.179 18.1993C125.621 19.7639 125.721 21.3996 125.478 23.1065H109.841C110.041 23.903 110.369 24.6213 110.825 25.2614C111.282 25.8872 111.859 26.3921 112.558 26.7762C113.257 27.146 114.048 27.338 114.932 27.3523C115.845 27.3665 116.672 27.1531 117.414 26.7122C118.169 26.257 118.797 25.6454 119.296 24.8773L124.623 26.1148C123.753 28.0065 122.455 29.5569 120.729 30.7659C119.004 31.9607 117.071 32.5581 114.932 32.5581ZM109.67 19.202H120.195C120.038 18.3486 119.703 17.5805 119.189 16.8978C118.69 16.2008 118.07 15.6461 117.328 15.2336C116.587 14.8211 115.788 14.6149 114.932 14.6149C114.077 14.6149 113.285 14.8211 112.558 15.2336C111.831 15.6319 111.21 16.1795 110.697 16.8765C110.198 17.5592 109.855 18.3344 109.67 19.202Z" fill="white"/>
<path d="M128.624 32.0034V0H133.844V32.0034H128.624Z" fill="white"/>
<path d="M154.78 10.6678H160V32.0034H154.78L154.545 29.3578C153.96 30.3108 153.183 31.086 152.214 31.6834C151.258 32.2666 150.124 32.5581 148.812 32.5581C147.229 32.5581 145.746 32.2594 144.363 31.662C142.98 31.0646 141.76 30.2397 140.705 29.1871C139.664 28.1346 138.844 26.9184 138.245 25.5387C137.66 24.159 137.368 22.6798 137.368 21.1009C137.368 19.579 137.646 18.1495 138.202 16.8125C138.773 15.4754 139.564 14.302 140.577 13.2921C141.589 12.2822 142.759 11.4928 144.085 10.9238C145.411 10.3549 146.837 10.0704 148.363 10.0704C149.775 10.0704 151.037 10.3833 152.149 11.0092C153.276 11.635 154.231 12.4315 155.016 13.3988L154.78 10.6678ZM148.684 27.5443C149.796 27.5443 150.78 27.2669 151.636 26.7122C152.492 26.1575 153.162 25.4107 153.647 24.4719C154.132 23.519 154.374 22.4735 154.374 21.3356C154.374 20.1835 154.132 19.138 153.647 18.1993C153.162 17.2463 152.484 16.4924 151.615 15.9377C150.759 15.383 149.782 15.1056 148.684 15.1056C147.586 15.1056 146.581 15.3901 145.668 15.959C144.769 16.5138 144.049 17.2605 143.507 18.1993C142.98 19.138 142.716 20.1835 142.716 21.3356C142.716 22.4877 142.987 23.5332 143.529 24.4719C144.071 25.4107 144.791 26.1575 145.689 26.7122C146.602 27.2669 147.6 27.5443 148.684 27.5443Z" fill="white"/>
<rect width="46.5116" height="46.5116" rx="15" fill="#3B38EB"/>
<mask id="mask0_475_141" style="mask-type:alpha" maskUnits="userSpaceOnUse" x="0" y="0" width="47" height="47">
<rect width="46.5116" height="46.5116" rx="15" fill="#2521E7"/>
</mask>
<g mask="url(#mask0_475_141)">
<path d="M23.0849 5.7666C17.2183 18.368 9.57383 30.7692 0.15686 42.9797L5.29714 51.649C13.0062 43.4776 18.9098 34.7809 23.0039 25.5547C25.5356 30.1726 27.9067 34.2281 30.124 37.7173C27.779 36.6818 24.1682 36.5666 19.2929 37.362C17.0673 41.1186 13.8368 45.4608 9.60404 50.3818C19.5565 45.1591 30.091 45.5609 41.1981 51.5928C42.5751 48.0831 44.1458 45.2139 45.9072 42.9797C38.3877 34.3228 30.7788 21.9216 23.0849 5.7666Z" fill="white"/>
<path d="M23.0849 5.7666C17.2183 18.368 9.57383 30.7692 0.15686 42.9797L5.29714 51.649C13.0062 43.4776 18.9098 34.7809 23.0039 25.5547C25.5356 30.1726 27.9067 34.2281 30.124 37.7173C27.779 36.6818 24.1682 36.5666 19.2929 37.362C17.0673 41.1186 13.8368 45.4608 9.60404 50.3818C19.5565 45.1591 30.091 45.5609 41.1981 51.5928C42.5751 48.0831 44.1458 45.2139 45.9072 42.9797C38.3877 34.3228 30.7788 21.9216 23.0849 5.7666Z" fill="white"/>
<path d="M23.0042 25.5547L23.0865 5.7666C17.22 18.368 9.57548 30.7692 0.158508 42.9797C6.43283 38.259 14.0485 32.4507 23.0042 25.5547Z" fill="white"/>
<path d="M23.0848 5.7666L23.0024 25.5547C33.4574 33.4423 41.0923 39.252 45.9044 42.9797C38.3876 34.3228 30.7788 21.9216 23.0848 5.7666Z" fill="white"/>
<path d="M45.9058 42.9807C41.0964 39.2515 33.4629 33.4432 23.0038 25.5557C25.5355 30.1735 27.9066 34.2291 30.1239 37.7182C32.0515 40.7533 33.861 43.3592 35.5511 45.5385C37.6091 48.1883 39.4887 50.2072 41.1939 51.5938C42.5709 48.0841 44.1416 45.2149 45.9031 42.9807H45.9058Z" fill="white"/>
<path d="M35.5512 45.5396C33.8611 43.36 32.053 40.7539 30.124 37.7184C27.779 36.6828 24.1682 36.5676 19.2929 37.3632C26.715 39.6497 32.134 42.3752 35.5553 45.5396H35.5512Z" fill="white"/>
<path d="M35.5512 45.5369C32.1298 42.3742 26.7109 39.649 19.2888 37.3613C17.0632 41.1179 13.8327 45.4601 9.59995 50.3811C19.5524 45.1584 30.0869 45.5602 41.194 51.5921C39.4888 50.2055 37.6051 48.1908 35.5512 45.5369Z" fill="white"/>
<path d="M5.29714 51.65C13.0062 43.4785 18.9098 34.7818 23.0039 25.5557C14.0482 32.4516 6.43256 38.26 0.15686 42.9807L5.29714 51.65Z" fill="white"/>
</g>
</svg>
